# xmcd
#
# Track frame offsets:
#	150
#	12667
#	29680
#	42565
#	54705
#	66227
#	82650
#	105785
#	116900
#	136775
#	150537
#	166660
#	178497
#	193575
#	207700
#
# Disc length: 2861 seconds
#
# Revision: 1
# Processed by: cddbd v1.4PL0 Copyright (c) Steve Scherf et al.
# Submitted via: EasyCDDAExtractor 5.0.6
#
DISCID=d20b2b0f
DTITLE=Vera Martinova - Vera Martinova a pratele
DYEAR=1994
DGENRE=Country
TTITLE0=Nebe, peklo, raj
TTITLE1=Bolim cela
TTITLE2=Vrat se na kazdej pad
TTITLE3=Vily
TTITLE4=Cehy, nebo hot
TTITLE5=Ja se stavam vodou
TTITLE6=Nika
TTITLE7=Babicciny dziny
TTITLE8=Hymna tulaku
TTITLE9=Zadnej hacek
TTITLE10=Naruc planejch ruzi
TTITLE11=V sedle je mi lip
TTITLE12=My blues
TTITLE13=Hadej
TTITLE14=Zaver
EXTD=
EXTT0=
EXTT1=
EXTT2=
EXTT3=
EXTT4=
EXTT5=
EXTT6=
EXTT7=
EXTT8=
EXTT9=
EXTT10=
EXTT11=
EXTT12=
EXTT13=
EXTT14=
PLAYORDER=
